<svg width="36" height="36" viewBox="0 0 36 36" fill="none" xmlns="http://www.w3.org/2000/svg">
<path d="M18 3.375C15.1075 3.375 12.2799 4.23274 9.87479 5.83976C7.46972 7.44677 5.5952 9.73089 4.48827 12.4033C3.38134 15.0756 3.09171 18.0162 3.65602 20.8532C4.22033 23.6902 5.61323 26.2961 7.65857 28.3414C9.70391 30.3868 12.3098 31.7797 15.1468 32.344C17.9838 32.9083 20.9244 32.6187 23.5968 31.5117C26.2691 30.4048 28.5532 28.5303 30.1602 26.1252C31.7673 23.7201 32.625 20.8926 32.625 18C32.6209 14.1225 31.0788 10.4049 28.3369 7.66309C25.5951 4.92125 21.8775 3.37909 18 3.375ZM19.125 30.323V21.375H22.5C22.7984 21.375 23.0845 21.2565 23.2955 21.0455C23.5065 20.8345 23.625 20.5484 23.625 20.25C23.625 19.9516 23.5065 19.6655 23.2955 19.4545C23.0845 19.2435 22.7984 19.125 22.5 19.125H19.125V15.75C19.125 15.1533 19.3621 14.581 19.784 14.159C20.206 13.7371 20.7783 13.5 21.375 13.5H23.625C23.9234 13.5 24.2095 13.3815 24.4205 13.1705C24.6315 12.9595 24.75 12.6734 24.75 12.375C24.75 12.0766 24.6315 11.7905 24.4205 11.5795C24.2095 11.3685 23.9234 11.25 23.625 11.25H21.375C20.1815 11.25 19.0369 11.7241 18.193 12.568C17.3491 13.4119 16.875 14.5565 16.875 15.75V19.125H13.5C13.2016 19.125 12.9155 19.2435 12.7045 19.4545C12.4935 19.6655 12.375 19.9516 12.375 20.25C12.375 20.5484 12.4935 20.8345 12.7045 21.0455C12.9155 21.2565 13.2016 21.375 13.5 21.375H16.875V30.323C13.7036 30.0335 10.7659 28.5325 8.67297 26.1323C6.58001 23.7321 5.49292 20.6174 5.63782 17.4361C5.78273 14.2549 7.14847 11.2519 9.45096 9.0519C11.7534 6.8519 14.8154 5.62421 18 5.62421C21.1846 5.62421 24.2466 6.8519 26.5491 9.0519C28.8515 11.2519 30.2173 14.2549 30.3622 17.4361C30.5071 20.6174 29.42 23.7321 27.327 26.1323C25.2341 28.5325 22.2964 30.0335 19.125 30.323Z" fill="black"/>
</svg>
