<svg width="36" height="36" viewBox="0 0 36 36" fill="none" xmlns="http://www.w3.org/2000/svg">
<g clip-path="url(#clip0_2147_28542)">
<path d="M18 23.625C21.1066 23.625 23.625 21.1066 23.625 18C23.625 14.8934 21.1066 12.375 18 12.375C14.8934 12.375 12.375 14.8934 12.375 18C12.375 21.1066 14.8934 23.625 18 23.625Z" stroke="black" stroke-width="2.25" stroke-miterlimit="10"/>
<path d="M24.75 4.5H11.25C7.52208 4.5 4.5 7.52208 4.5 11.25V24.75C4.5 28.4779 7.52208 31.5 11.25 31.5H24.75C28.4779 31.5 31.5 28.4779 31.5 24.75V11.25C31.5 7.52208 28.4779 4.5 24.75 4.5Z" stroke="black" stroke-width="2.25" stroke-linecap="round" stroke-linejoin="round"/>
<path d="M25.3125 12.375C26.2445 12.375 27 11.6195 27 10.6875C27 9.75552 26.2445 9 25.3125 9C24.3805 9 23.625 9.75552 23.625 10.6875C23.625 11.6195 24.3805 12.375 25.3125 12.375Z" fill="black"/>
</g>
<defs>
<clipPath id="clip0_2147_28542">
<rect width="36" height="36" fill="white"/>
</clipPath>
</defs>
</svg>
