<svg width="36" height="36" viewBox="0 0 36 36" fill="none" xmlns="http://www.w3.org/2000/svg">
<g clip-path="url(#clip0_2147_28547)">
<path d="M30.375 4.5H5.625C5.00368 4.5 4.5 5.00368 4.5 5.625V30.375C4.5 30.9963 5.00368 31.5 5.625 31.5H30.375C30.9963 31.5 31.5 30.9963 31.5 30.375V5.625C31.5 5.00368 30.9963 4.5 30.375 4.5Z" stroke="black" stroke-width="2.25" stroke-linecap="round" stroke-linejoin="round"/>
<path d="M16.875 15.75V24.75" stroke="black" stroke-width="2.25" stroke-linecap="round" stroke-linejoin="round"/>
<path d="M12.375 15.75V24.75" stroke="black" stroke-width="2.25" stroke-linecap="round" stroke-linejoin="round"/>
<path d="M16.875 19.6875C16.875 18.6432 17.2898 17.6417 18.0283 16.9033C18.7667 16.1648 19.7682 15.75 20.8125 15.75C21.8568 15.75 22.8583 16.1648 23.5967 16.9033C24.3352 17.6417 24.75 18.6432 24.75 19.6875V24.75" stroke="black" stroke-width="2.25" stroke-linecap="round" stroke-linejoin="round"/>
<path d="M12.375 13.5C13.307 13.5 14.0625 12.7445 14.0625 11.8125C14.0625 10.8805 13.307 10.125 12.375 10.125C11.443 10.125 10.6875 10.8805 10.6875 11.8125C10.6875 12.7445 11.443 13.5 12.375 13.5Z" fill="black"/>
</g>
<defs>
<clipPath id="clip0_2147_28547">
<rect width="36" height="36" fill="white"/>
</clipPath>
</defs>
</svg>
